<svg width="279" height="178" viewBox="0 0 279 178" fill="none" xmlns="http://www.w3.org/2000/svg">
<path d="M178 42H154V177.76H178V42Z" fill="#1A293E"/>
<path d="M154 178V154H279C279 154 268.852 178 248.5 178H154Z" fill="#3FD6CD"/>
<path d="M0.220241 178C0.220241 178 -0.275301 143.056 0.220241 124.167C0.715783 105.278 8.96153 99.3856 24 93V178H0.220241Z" fill="#1A293E"/>
<path d="M83.7798 178C83.7798 178 84.2753 143.056 83.7798 124.167C83.2842 105.278 75.0385 99.3856 60 93V178H83.7798Z" fill="#1A293E"/>
<path d="M5.67667e-05 33.7159C-7.09583e-05 53.0529 5.67667e-05 86.273 5.67667e-05 86.273C19.4454 60.9861 52.5 53.5 77.7815 77.3482C103.063 101.196 154 178 154 178H178C178 178 109.193 75.3649 90.2465 57.5153C71.2997 39.6657 43.3781 35.6992 23.9328 43.6323V0C6.86733 7.35811 0.000184492 14.3788 5.67667e-05 33.7159Z" fill="#3FD6CD"/>
</svg>
