<svg width="455" height="178" viewBox="0 0 455 178" fill="none" xmlns="http://www.w3.org/2000/svg">
<path d="M382.093 42.0742L383.436 42.0357C403.324 41.5025 420.54 46.9047 435.108 60.7723C447.271 72.5194 454.324 88.5775 454.75 105.48C455.09 119.49 452.5 128 445.197 143.02C445.197 143.02 442.928 148.45 440.5 151C440.5 151 445.197 156.5 454 165.565C454 165.565 441.788 176.826 439.955 177.76C432.925 174.815 428.076 170.636 422.633 165.565C413.44 170.502 413 170.5 396.919 174.722C395.517 174.892 393.339 175.848 391.97 175.755C391.705 174.966 395.968 172.063 397.184 170.84C402.272 166.088 404.778 161.718 407.133 155.2C409.905 147.522 398.794 144.823 395.904 139.414C396.134 138.109 408.493 125.948 410.382 124.437C410.382 124.437 419.441 132.74 422.898 135.814C424.941 132.636 426.482 130.221 428.005 126.75C440.416 97.7711 420.734 63.91 388.669 62.7296C387.104 62.6719 385.482 62.7048 383.916 62.7918C372.472 63.3952 361.73 68.4988 354.031 76.99C344.531 87.6539 341.632 98.7796 342.079 113.073C342.403 123.505 349.014 135.498 356.824 142.397C352.674 142.984 347.12 142.83 342.883 142.854C337.688 142.884 332.391 143.024 327.22 142.655C325.702 140.088 324.766 137.933 323.61 135.25C307.42 97.6711 327.565 54.8265 367.431 44.4938C372.467 43.1889 376.984 42.8236 382.093 42.0742Z" fill="#1A293E"/>
<path d="M69.5001 178H90.0001L90 154H24.0001L24 42.2422H0C0.0312375 65.5372 3.36284e-05 178 3.36284e-05 178H24.0001H69.5001Z" fill="#1A293E"/>
<path d="M294 42H270V177.76H294V42Z" fill="#1A293E"/>
<path d="M270 178V154H395C395 154 384.852 178 364.5 178H270Z" fill="#3FD6CD"/>
<path d="M116.22 178C116.22 178 115.725 143.056 116.22 124.167C116.716 105.278 124.962 99.3856 140 93V178H116.22Z" fill="#1A293E"/>
<path d="M199.78 178C199.78 178 200.275 143.056 199.78 124.167C199.284 105.278 191.038 99.3856 176 93V178H199.78Z" fill="#1A293E"/>
<path d="M116 33.7159C116 53.0529 116 86.273 116 86.273C135.445 60.9861 168.5 53.5 193.782 77.3482C219.063 101.196 270 178 270 178H294C294 178 225.193 75.3649 206.247 57.5153C187.3 39.6657 159.378 35.6992 139.933 43.6323V0C122.867 7.35811 116 14.3788 116 33.7159Z" fill="#3FD6CD"/>
</svg>
