<svg width="24" height="24" viewBox="0 0 24 24" fill="none" xmlns="http://www.w3.org/2000/svg">
<g clip-path="url(#clip0_217_1178)">
<path d="M11.1126 11.7559C11.3234 11.7613 11.6 11.709 11.7711 11.8214C11.8831 12.0128 12.7432 14.4017 12.7563 14.5969C12.6421 14.7124 12.3425 14.6608 12.1863 14.6513C12.0635 14.3665 12.1288 14.0845 11.7882 14.0537C11.4887 14.0568 11.1984 14.0608 10.8987 14.0494C10.6508 14.7105 10.7871 14.6829 10.0569 14.6517C10.2383 14.005 10.5583 13.3243 10.7661 12.679C10.8597 12.3883 10.9926 12.0373 11.1126 11.7559ZM10.7798 13.8832C11.0712 13.8883 11.3626 13.891 11.654 13.891C11.7476 13.8941 12.0346 13.8888 12.1003 13.9457C12.2241 14.053 12.2267 14.6853 12.5449 14.4718C12.5525 14.3884 11.7559 12.2199 11.6637 11.9128C11.5342 11.9082 11.3728 11.907 11.2465 11.8935C11.126 12.0914 10.3922 14.1301 10.3218 14.4404L10.3446 14.4952C10.4223 14.5125 10.4323 14.5097 10.5084 14.4852C10.6499 14.3582 10.7175 14.0717 10.7798 13.8832Z" fill="#6B727F"/>
<path d="M11.4249 12.1706C11.4333 12.1727 11.4419 12.174 11.45 12.177C11.549 12.2146 11.9392 13.4792 12.0238 13.6737L11.5449 13.6704L10.8491 13.6712C11.0588 13.2599 11.2005 12.6189 11.4249 12.1706ZM11.0729 13.5306L11.5175 13.5216L11.8077 13.5262C11.7147 13.3379 11.5492 12.6503 11.4402 12.5603C11.3473 12.8158 11.1839 13.3031 11.0729 13.5306Z" fill="#6B727F"/>
<path d="M13.1712 11.757C13.382 11.7547 13.5289 11.7553 13.7382 11.7747C13.7471 12.3738 13.7511 12.973 13.7501 13.5721C13.7506 13.819 13.7923 14.498 13.6695 14.6761C13.4711 14.6641 13.3223 14.665 13.1232 14.6706C13.1296 14.3204 13.1003 11.9044 13.1712 11.757ZM13.5771 14.5049C13.5689 13.9331 13.5666 13.3613 13.5702 12.7895C13.5706 12.5843 13.5883 12.1257 13.5605 11.943C13.4933 11.8848 13.402 11.8987 13.3063 11.8932C13.2682 12.1873 13.2581 14.2032 13.303 14.4713C13.3771 14.5206 13.4828 14.5073 13.5771 14.5049Z" fill="#6B727F"/>
<path d="M7.63553 4.61656C7.80361 4.2959 7.97567 3.97737 8.15168 3.661C8.33017 3.33627 8.48401 3.04677 8.71336 2.758C9.52994 1.72991 10.7581 1.6852 11.9649 1.723C12.5474 1.74123 13.1433 1.68602 13.7322 1.78441C14.0154 1.83188 14.2892 1.92431 14.5433 2.05823C14.8244 2.20515 15.0555 2.38807 15.2593 2.63046C15.6489 3.09358 17.4313 6.46542 17.5094 6.50023C17.563 6.52415 17.5865 6.52368 17.6434 6.50636C17.9322 6.41841 18.5727 5.77458 18.8524 5.91658C18.9154 5.94858 18.9666 6.01633 18.9801 6.08608C19.01 6.24 17.7509 9.94878 17.5604 10.1835C17.5133 10.2416 17.4614 10.2429 17.3911 10.2478C17.2595 10.2569 17.116 10.2358 16.9873 10.2085C16.6859 10.1446 13.4899 9.31897 13.3959 9.22405C13.3448 9.17237 13.3295 9.11383 13.3207 9.044C13.378 8.75567 14.1616 8.36937 14.4405 8.23985L13.0331 5.75236C12.8145 5.36477 12.5302 4.89038 12.3325 4.49871C11.8479 5.17103 11.4842 5.92467 11.0482 6.61477C10.9788 6.53035 11.0906 6.50688 10.9359 6.3526C11.2817 5.81062 11.7592 4.72927 12.2571 4.37907C11.8224 3.39361 10.9392 1.90417 9.63459 2.35328C8.96414 2.58408 8.63487 3.26568 8.31872 3.83936C8.14903 4.14556 7.9777 4.45083 7.80473 4.75518C7.78628 4.72487 7.76548 4.68335 7.74829 4.65121C7.69718 4.6481 7.67997 4.64165 7.63553 4.61656ZM13.4614 9.04146C14.068 9.20421 14.6756 9.36365 15.2839 9.51976C15.5362 9.58524 16.0288 9.72796 16.2695 9.76974C16.3816 9.8024 17.3356 10.1123 17.3971 10.0052C17.7074 9.46559 17.8421 8.77114 18.0769 8.18435C18.2903 7.61548 18.4664 7.016 18.675 6.44413C18.7209 6.31836 18.7735 6.17064 18.8073 6.04211C18.5647 6.19892 17.7409 6.75768 17.519 6.81849C17.4553 6.80111 17.3943 6.7591 17.3612 6.70048C16.9056 5.89308 16.4188 5.05455 15.9818 4.23881C15.1335 2.65554 14.7188 1.94043 12.7647 1.95612C12.4278 1.95582 10.5692 1.91231 10.3624 2.06506C10.43 2.11701 10.5653 2.12759 10.654 2.15648C11.3879 2.39476 11.7572 3.01386 12.1081 3.64933C12.9001 5.08387 13.7164 6.50548 14.5146 7.93649C14.6766 8.22709 14.6878 8.33217 14.399 8.5082C14.0915 8.69558 13.7691 8.85811 13.4614 9.04146Z" fill="#6B727F"/>
<path d="M13.4614 9.04146C14.068 9.20421 14.6756 9.36365 15.2839 9.51976C15.5362 9.58524 16.0288 9.72796 16.2695 9.76974C16.3816 9.8024 17.3356 10.1123 17.3971 10.0052C17.7074 9.46559 17.8421 8.77114 18.0769 8.18435C18.2903 7.61548 18.4664 7.016 18.675 6.44413C18.7209 6.31836 18.7735 6.17064 18.8073 6.04211C18.5647 6.19892 17.7409 6.75768 17.519 6.81849C17.4553 6.80111 17.3943 6.7591 17.3612 6.70048C16.9056 5.89308 16.4188 5.05455 15.9818 4.23881C15.1335 2.65554 14.7188 1.94043 12.7647 1.95612C12.4278 1.95582 10.5692 1.91231 10.3624 2.06506C10.43 2.11701 10.5653 2.12759 10.654 2.15648C11.3879 2.39476 11.7572 3.01386 12.1081 3.64933C12.9001 5.08387 13.7164 6.50548 14.5146 7.93649C14.6766 8.22709 14.6878 8.33217 14.399 8.5082C14.0915 8.69558 13.7691 8.85811 13.4614 9.04146Z" fill="#6B727F"/>
<path d="M13.9415 4.81384C13.6594 4.32825 13.4139 3.82123 13.1155 3.34755C13.0137 3.18589 12.4465 3.02153 12.5337 2.78245C12.6129 2.77813 13.149 3.11216 13.1934 3.17805C13.4859 3.61259 13.9296 4.33831 14.1195 4.81365L14.0465 5.13273C14.2645 5.59438 14.6082 6.1017 14.8457 6.58251C15.2859 6.61173 15.3723 6.69402 15.2889 7.10303C15.2715 7.18797 15.87 8.20877 15.9292 8.36228C16.2528 8.4244 16.3366 8.45301 16.332 8.80177C16.505 8.86419 16.7504 9.00761 16.9304 9.04249C16.963 9.0488 16.9787 9.01841 17.0054 8.9895C17.0128 9.07823 17.0074 9.17012 17.0603 9.23456L17.0514 9.25033C16.9049 9.28865 16.4515 9.03426 16.2906 8.95104C15.7781 9.12407 15.6502 8.88827 15.8022 8.42303C15.584 8.07477 15.3469 7.63266 15.155 7.26802C15.0935 7.26239 15.0322 7.25578 14.9709 7.24818C14.6108 7.20219 14.667 6.95379 14.7129 6.6818C14.4976 6.28429 14.0214 5.53403 13.8762 5.17096C13.9021 5.06137 13.9219 4.92652 13.9415 4.81384ZM15.0734 7.08082C15.1512 7.04097 15.1847 6.94758 15.1499 6.86742C15.1151 6.78729 15.024 6.74797 14.9418 6.77759C14.8838 6.7985 14.8422 6.84993 14.8338 6.91107C14.8255 6.97221 14.8519 7.03291 14.9022 7.06854C14.9526 7.10421 15.0185 7.10894 15.0734 7.08082ZM16.1092 8.81776C16.1734 8.77252 16.1901 8.68447 16.1468 8.61893C16.1035 8.5534 16.0161 8.5341 15.9492 8.57537C15.9042 8.60319 15.8778 8.65331 15.8804 8.7062C15.8831 8.75908 15.9143 8.80636 15.9619 8.82956C16.0095 8.85276 16.0659 8.84826 16.1092 8.81776Z" fill="#6B727F"/>
<path d="M15.111 5.08022C15.0033 4.83977 14.0807 3.26202 14.0793 3.191C14.1458 3.15609 14.1209 3.16555 14.2103 3.18075C14.366 3.30102 15.1345 4.75046 15.2723 5.00487C15.7318 5.1017 15.804 5.26669 15.6035 5.69063C15.5482 5.72523 15.4534 5.71735 15.3803 5.72528C14.9152 5.68448 14.9856 5.40344 15.111 5.08022ZM15.4069 5.5566C15.4695 5.53832 15.5174 5.48767 15.5322 5.42413C15.547 5.36059 15.5265 5.29402 15.4784 5.24991C15.4303 5.20582 15.3621 5.19107 15.3001 5.21132C15.2063 5.24195 15.1544 5.3422 15.1835 5.43651C15.2127 5.53083 15.3121 5.58429 15.4069 5.5566Z" fill="#6B727F"/>
<path d="M15.3803 5.72521C15.4533 5.71728 15.5481 5.72515 15.6035 5.69055C15.7648 6.03113 16.0132 6.4586 16.1985 6.7973L17.2247 8.68742C17.1725 8.85765 17.103 9.0652 17.0603 9.23456C17.0074 9.17012 17.0128 9.07823 17.0053 8.98949C17.0201 8.87564 17.0501 8.71704 16.9855 8.62541C16.6572 8.15955 15.6806 5.98522 15.3803 5.72521Z" fill="#6B727F"/>
<path d="M11.0924 3.38877C11.1665 3.38568 11.1813 3.37885 11.2395 3.41755C11.2633 3.66644 10.4465 3.76682 10.3049 4.01624C10.206 4.1938 10.1036 4.36936 9.99769 4.5428C9.82529 4.62599 9.40253 4.73919 9.19318 4.80574C8.84202 5.39357 8.38316 6.10663 8.06848 6.69985C8.1449 6.9611 8.09283 7.25656 7.75684 7.24139C7.61604 7.1972 7.47261 7.16489 7.43941 6.97154C7.36291 6.52625 7.88652 6.56812 7.90549 6.53937C8.21732 6.06719 8.77618 5.04241 9.07438 4.6264C9.29209 4.53331 9.62403 4.44515 9.8582 4.37726C10.3067 3.62348 10.2773 3.70509 11.0924 3.38877ZM7.83946 7.06208C7.89808 7.03762 7.93768 6.98198 7.94162 6.91857C7.94555 6.85517 7.91308 6.79507 7.85796 6.76356C7.80281 6.73204 7.73454 6.73461 7.6819 6.77017C7.61095 6.81813 7.58789 6.91207 7.62858 6.98741C7.66925 7.06279 7.76042 7.09507 7.83946 7.06208Z" fill="#6B727F"/>
<path d="M10.5316 4.83388C10.8073 4.82041 11.0587 4.98198 10.9445 5.27545C10.912 5.35869 10.8465 5.42478 10.7635 5.45795C10.6181 5.51751 10.5066 5.45364 10.366 5.39682L9.62354 5.68066C9.456 5.92248 9.24942 6.2814 9.08839 6.53925C8.90662 6.83032 8.65363 7.21883 8.50386 7.51296C8.56831 7.72755 8.5621 7.79757 8.43196 7.98232C8.1186 8.10656 7.75287 7.91418 7.95864 7.55275C8.02404 7.43791 8.12229 7.44671 8.24136 7.42291C8.37919 7.39533 8.45524 7.1888 8.53581 7.08527C8.86188 6.57 9.16308 6.03494 9.50244 5.52781C9.70889 5.42204 10.0551 5.30696 10.2813 5.22904C10.3486 5.02721 10.3623 4.95514 10.5316 4.83388ZM10.7021 5.30718C10.7555 5.28482 10.7925 5.2353 10.7989 5.17777C10.8053 5.12027 10.78 5.06383 10.7328 5.0303C10.6857 4.99679 10.624 4.99146 10.5718 5.01641C10.4938 5.05369 10.4597 5.14642 10.4951 5.22535C10.5304 5.30431 10.6223 5.3406 10.7021 5.30718ZM8.29985 7.85264C8.34907 7.82853 8.38151 7.77978 8.38465 7.72504C8.38779 7.67032 8.36118 7.61815 8.31504 7.58858C8.26888 7.55898 8.21037 7.5566 8.16197 7.58232C8.08881 7.62118 8.06033 7.71151 8.09796 7.78527C8.1356 7.85906 8.22543 7.88904 8.29985 7.85264Z" fill="#6B727F"/>
<path d="M9.93925 6.15201C10.1701 6.23903 10.3185 6.33607 10.21 6.60177C10.139 6.77578 9.94294 6.71224 9.89547 6.78152C9.56423 7.26501 9.09679 8.06848 8.80078 8.53745C8.78788 8.55309 8.7386 8.59422 8.72059 8.61007L8.66828 8.60327L8.64574 8.54344C8.6459 8.36809 9.55087 6.94766 9.69728 6.70811C9.62709 6.40164 9.62291 6.26942 9.93925 6.15201ZM10.0226 6.5772C10.0786 6.53837 10.0973 6.46417 10.0665 6.40339C10.0357 6.34261 9.96478 6.31385 9.90036 6.33605C9.85002 6.3534 9.81436 6.39844 9.80903 6.45141C9.8037 6.5044 9.82966 6.55564 9.87555 6.58267C9.92141 6.60967 9.97883 6.60757 10.0226 6.5772Z" fill="#6B727F"/>
<path d="M9.02107 9.52012C9.02443 9.51788 9.02777 9.51558 9.03118 9.5134C9.25075 9.37273 10.6673 6.80819 10.9361 6.35266C11.0908 6.50694 10.979 6.53041 11.0484 6.61483C10.834 7.00513 9.39153 9.51009 9.21869 9.64114C9.15611 9.54548 9.11462 9.54584 9.02107 9.52012Z" fill="#6B727F"/>
<path d="M5.91741 7.88984C5.917 7.79104 5.91271 7.66117 5.95638 7.57147C6.34881 6.76525 6.85794 6.01029 7.28341 5.21948C7.38988 5.02156 7.51459 4.80196 7.63588 4.61664C7.68032 4.64173 7.69753 4.64818 7.74864 4.65129C7.76583 4.68343 7.78663 4.72495 7.80508 4.75525C7.31128 5.7356 6.62607 6.68979 6.1472 7.68085C6.11484 7.74783 6.13616 7.85163 6.15176 7.92296C6.0454 7.878 6.03048 7.87133 5.91741 7.88984Z" fill="#6B727F"/>
<path d="M5.91711 7.88985C6.03018 7.87134 6.0451 7.87801 6.15147 7.92297C6.34966 7.99282 6.58308 8.16691 6.75912 8.25519C7.26116 8.50698 8.56034 9.38284 9.0209 9.52015C9.11445 9.54586 9.15593 9.54551 9.21852 9.64116L9.19545 9.65289C8.98392 9.75857 8.83279 9.70208 8.63792 9.58877C7.7801 9.09 6.89257 8.62493 6.06185 8.08353C5.99391 8.03926 5.95166 7.96099 5.91711 7.88985Z" fill="#6B727F"/>
<path d="M11.9015 10.2567C11.9484 10.2439 11.9985 10.2577 12.0321 10.2927C12.0658 10.3277 12.0776 10.3783 12.0629 10.4246C12.0482 10.4709 12.0094 10.5055 11.9617 10.5147C11.8918 10.5283 11.8236 10.4841 11.8074 10.4147C11.7912 10.3453 11.8328 10.2755 11.9015 10.2567Z" fill="#6B727F"/>
<path d="M9.11618 13.7947C9.1587 13.7727 9.20978 13.7758 9.24941 13.8026C9.28904 13.8294 9.31087 13.8757 9.30631 13.9233C9.30177 13.9709 9.27157 14.0122 9.2276 14.0311C9.16291 14.0587 9.08792 14.0302 9.05794 13.9666C9.02793 13.903 9.05367 13.827 9.11618 13.7947Z" fill="#6B727F"/>
<path d="M13.3118 10.6201C13.3482 10.586 13.401 10.5759 13.4474 10.5941C13.4939 10.6122 13.5259 10.6554 13.5297 10.7051C13.5335 10.7548 13.5084 10.8023 13.4652 10.8273C13.4081 10.8603 13.3353 10.8452 13.296 10.7921C13.2568 10.7391 13.2635 10.6651 13.3118 10.6201Z" fill="#6B727F"/>
<path d="M11.866 15.976C11.906 15.9451 11.9603 15.9404 12.005 15.964C12.0497 15.9877 12.0765 16.0352 12.0735 16.0857C12.0704 16.1362 12.0382 16.1802 11.991 16.1983C11.9313 16.2213 11.8638 16.197 11.8324 16.1412C11.8011 16.0855 11.8154 16.0151 11.866 15.976Z" fill="#6B727F"/>
<path d="M11.1595 10.3708C11.1988 10.3458 11.2487 10.3449 11.2889 10.3684C11.3291 10.3919 11.3528 10.4359 11.3502 10.4824C11.3477 10.5288 11.3194 10.57 11.2768 10.589C11.2175 10.6155 11.1477 10.5917 11.1168 10.5344C11.086 10.4771 11.1046 10.4058 11.1595 10.3708Z" fill="#6B727F"/>
<path d="M9.72368 14.9323C9.76828 14.9196 9.81627 14.9328 9.84811 14.9665C9.87995 15.0003 9.89034 15.0489 9.87509 15.0927C9.85984 15.1365 9.82144 15.1682 9.77555 15.1748C9.71081 15.1842 9.64986 15.1418 9.63617 15.0778C9.62251 15.0139 9.66074 14.9502 9.72368 14.9323Z" fill="#6B727F"/>
<path d="M9.84883 11.1621C9.89299 11.1547 9.9377 11.1718 9.96575 11.2067C9.99376 11.2417 10.0007 11.289 9.98381 11.3305C9.96697 11.372 9.92899 11.4012 9.88455 11.4067C9.81784 11.415 9.7567 11.3684 9.747 11.3019C9.73727 11.2354 9.78253 11.1733 9.84883 11.1621Z" fill="#6B727F"/>
<path d="M12.5982 15.8907C12.6389 15.8684 12.6887 15.8707 12.727 15.8968C12.7654 15.9229 12.7858 15.9684 12.78 16.0144C12.7741 16.0604 12.7429 16.0992 12.6992 16.1149C12.6386 16.1366 12.5716 16.1081 12.5452 16.0494C12.5188 15.9908 12.5419 15.9217 12.5982 15.8907Z" fill="#6B727F"/>
<path d="M9.36448 14.4521C9.42059 14.4148 9.49621 14.4297 9.53406 14.4854C9.57189 14.5411 9.55781 14.6169 9.5025 14.6553C9.4662 14.6805 9.41917 14.6843 9.37932 14.6652C9.33947 14.6461 9.31296 14.6071 9.3099 14.563C9.30681 14.5189 9.32767 14.4766 9.36448 14.4521Z" fill="#6B727F"/>
<path d="M10.0731 15.3472C10.1087 15.3204 10.1561 15.3153 10.1966 15.3339C10.237 15.3524 10.2641 15.3917 10.267 15.4361C10.2699 15.4805 10.2483 15.523 10.2106 15.5467C10.1556 15.5813 10.083 15.5664 10.0462 15.5129C10.0093 15.4594 10.0212 15.3863 10.0731 15.3472Z" fill="#6B727F"/>
<path d="M13.7721 15.3216C13.8085 15.2915 13.8589 15.2852 13.9015 15.3055C13.944 15.3257 13.971 15.3688 13.9707 15.4159C13.9703 15.463 13.9427 15.5057 13.8998 15.5253C13.8445 15.5506 13.779 15.531 13.7466 15.4794C13.7143 15.4278 13.7252 15.3603 13.7721 15.3216Z" fill="#6B727F"/>
<path d="M7.23664 21.1396C6.875 21.1566 6.51318 21.1691 6.15124 21.177C5.78082 21.1871 5.45326 21.2006 5.08818 21.1485C3.78839 20.9633 3.12928 19.926 2.55217 18.8655C2.27356 18.3536 1.92485 17.8673 1.71223 17.3094C1.61008 17.041 1.55148 16.7579 1.53869 16.471C1.52347 16.1543 1.56456 15.8624 1.67074 15.564C1.87358 14.9938 3.88279 11.752 3.87339 11.6671C3.86692 11.6087 3.85466 11.5887 3.81095 11.5483C3.58913 11.3435 2.70989 11.116 2.69114 10.803C2.68691 10.7324 2.71951 10.654 2.77287 10.6071C2.89063 10.5036 6.72735 9.71625 7.02615 9.76201C7.10012 9.77334 7.12742 9.81743 7.16718 9.87567C7.24151 9.98461 7.29586 10.1191 7.33731 10.244C7.43439 10.5364 8.33674 13.7116 8.3023 13.8406C8.28354 13.9109 8.24072 13.9536 8.18495 13.9966C7.90716 14.0928 7.17786 13.6117 6.92519 13.4365L5.48967 15.9079C5.26563 16.2923 4.99987 16.7773 4.76178 17.1458C5.58683 17.2244 6.42092 17.1574 7.23677 17.185C7.19898 17.2875 7.12225 17.2029 7.06728 17.4144C6.42482 17.3898 5.25041 17.5241 4.69664 17.2714C4.06586 18.1444 3.22672 19.6591 4.27346 20.558C4.81138 21.02 5.56595 20.9598 6.22076 20.9427C6.57074 20.9345 6.92074 20.9281 7.27078 20.9236C7.25394 20.9548 7.22862 20.9937 7.20957 21.0248C7.23271 21.0705 7.23584 21.0886 7.23664 21.1396ZM8.11165 13.8764C7.94559 13.2706 7.77623 12.6658 7.60356 12.0619C7.53261 11.8111 7.40689 11.3139 7.32134 11.0851C7.29285 10.9718 7.07829 9.99203 6.95479 9.99302C6.33234 9.99791 5.66501 10.2326 5.03999 10.3264C4.44122 10.4296 3.83493 10.5806 3.23602 10.6895C3.10432 10.7135 2.95023 10.7427 2.82226 10.7785C3.08014 10.9086 3.97857 11.3372 4.14317 11.498C4.16033 11.5617 4.15493 11.6356 4.12105 11.6937C3.65449 12.4949 3.1768 13.3386 2.69366 14.1279C1.75593 15.6599 1.34837 16.3791 2.34922 18.0575C2.51919 18.3484 3.4207 19.9743 3.65703 20.0756C3.6677 19.991 3.60846 19.8689 3.58859 19.7778C3.42341 19.024 3.77105 18.3925 4.14217 17.7686C4.97995 16.3603 5.79435 14.9377 6.62598 13.5258C6.79486 13.2391 6.8799 13.1764 7.17775 13.3367C7.49479 13.5074 7.79793 13.7035 8.11165 13.8764Z" fill="#6B727F"/>
<path d="M8.11165 13.8764C7.94559 13.2706 7.77623 12.6658 7.60356 12.0619C7.53261 11.8111 7.40689 11.3139 7.32134 11.0851C7.29285 10.9718 7.07829 9.99203 6.95479 9.99302C6.33234 9.99791 5.66501 10.2326 5.03999 10.3264C4.44122 10.4296 3.83493 10.5806 3.23602 10.6895C3.10432 10.7135 2.95023 10.7427 2.82226 10.7785C3.08014 10.9086 3.97857 11.3372 4.14317 11.498C4.16033 11.5617 4.15493 11.6356 4.12105 11.6937C3.65449 12.4949 3.1768 13.3386 2.69366 14.1279C1.75593 15.6599 1.34837 16.3791 2.34922 18.0575C2.51919 18.3484 3.4207 19.9743 3.65703 20.0756C3.6677 19.991 3.60846 19.8689 3.58859 19.7778C3.42341 19.024 3.77105 18.3925 4.14217 17.7686C4.97995 16.3603 5.79435 14.9377 6.62598 13.5258C6.79486 13.2391 6.8799 13.1764 7.17775 13.3367C7.49479 13.5074 7.79793 13.7035 8.11165 13.8764Z" fill="#6B727F"/>
<path d="M4.22077 15.5981C3.94428 16.0869 3.63075 16.5549 3.37273 17.0517C3.28467 17.2213 3.42943 17.7938 3.17906 17.8394C3.13532 17.7732 3.15268 17.1418 3.18713 17.0702C3.4143 16.5982 3.81643 15.8487 4.13069 15.4446L4.44291 15.3464C4.73114 14.9249 4.99531 14.3721 5.29023 13.9242C5.09306 13.5296 5.12039 13.4134 5.51552 13.2787C5.59758 13.2508 6.17611 12.2186 6.27867 12.0899C6.16878 11.7793 6.15112 11.6925 6.45445 11.5203C6.42091 11.3395 6.42067 11.0552 6.35982 10.8822C6.34881 10.8509 6.31464 10.8527 6.27621 10.8443C6.34905 10.7931 6.43103 10.7513 6.45994 10.6731L6.47802 10.6728C6.58514 10.7799 6.59466 11.2996 6.60415 11.4805C7.01244 11.8354 6.87356 12.0649 6.39526 12.1688C6.20497 12.533 5.94327 12.9611 5.72554 13.3109C5.75173 13.3668 5.77704 13.4231 5.80143 13.4798C5.94366 13.8138 5.70092 13.8908 5.44304 13.9886C5.20878 14.3753 4.8019 15.1652 4.56193 15.474C4.45428 15.507 4.32793 15.5581 4.22077 15.5981ZM5.60519 13.4759C5.5315 13.4289 5.43401 13.4472 5.38243 13.5177C5.33085 13.5882 5.34294 13.6867 5.41003 13.7427C5.4574 13.7822 5.5228 13.7921 5.57976 13.7684C5.63673 13.7447 5.67579 13.6913 5.68111 13.6298C5.68645 13.5684 5.6572 13.509 5.60519 13.4759ZM6.58079 11.7044C6.50932 11.6719 6.42492 11.702 6.39022 11.7724C6.35552 11.8429 6.38307 11.9281 6.45245 11.965C6.49923 11.9898 6.55579 11.9872 6.6001 11.9582C6.6444 11.9292 6.66945 11.8784 6.66542 11.8256C6.6614 11.7728 6.62898 11.7264 6.58079 11.7044Z" fill="#6B727F"/>
<path d="M3.85976 14.4543C3.70665 14.6686 2.81128 16.262 2.75066 16.2991C2.68699 16.2594 2.70769 16.276 2.67563 16.1912C2.70078 15.9961 3.56333 14.6006 3.71325 14.3532C3.56461 13.9076 3.67052 13.762 4.13767 13.7208C4.19549 13.7511 4.2366 13.8369 4.28035 13.8959C4.48013 14.3179 4.20206 14.3992 3.85976 14.4543ZM4.12136 13.9582C4.07393 13.9134 4.00603 13.8976 3.94372 13.917C3.8814 13.9363 3.83435 13.9877 3.82058 14.0515C3.80683 14.1153 3.82852 14.1815 3.87734 14.2248C3.95118 14.2903 4.06392 14.2844 4.13057 14.2116C4.19723 14.1388 4.19313 14.026 4.12136 13.9582Z" fill="#6B727F"/>
<path d="M4.2803 13.896C4.23655 13.837 4.19544 13.7512 4.13762 13.7209C4.35001 13.4096 4.59341 12.9793 4.79209 12.6482L5.90467 10.8076C6.07795 10.7666 6.2922 10.7218 6.45993 10.6731C6.43103 10.7513 6.34904 10.7931 6.27621 10.8443C6.17048 10.8891 6.01849 10.9434 5.97202 11.0454C5.73588 11.5641 4.35292 13.5054 4.2803 13.896Z" fill="#6B727F"/>
<path d="M4.4305 18.7768C4.3904 18.7144 4.377 18.7051 4.381 18.6353C4.58379 18.489 5.08311 19.1432 5.36988 19.1394C5.57304 19.1349 5.77631 19.1346 5.9795 19.1384C6.13839 19.2452 6.44968 19.5528 6.61289 19.6998C7.29759 19.7059 8.14479 19.7416 8.81571 19.7134C9.00255 19.5155 9.28383 19.4111 9.4405 19.7087C9.4735 19.8526 9.51809 19.9927 9.36801 20.119C9.02239 20.41 8.79397 19.937 8.75957 19.9352C8.19454 19.9046 7.02782 19.9401 6.51815 19.893C6.32782 19.7521 6.08402 19.5102 5.90712 19.3424C5.03004 19.3363 5.11529 19.3204 4.4305 18.7768ZM9.24402 19.728C9.19329 19.6898 9.12526 19.6837 9.06856 19.7124C9.01185 19.741 8.97639 19.7994 8.97705 19.8629C8.97772 19.9264 9.01443 19.984 9.07171 20.0115C9.14895 20.0485 9.24167 20.0209 9.28613 19.9477C9.33063 19.8746 9.31242 19.7796 9.24402 19.728Z" fill="#6B727F"/>
<path d="M5.96093 18.5306C5.81002 18.2995 5.82241 18.0009 6.13336 17.9512C6.2216 17.9371 6.31174 17.9603 6.3823 18.0151C6.50716 18.1105 6.50838 18.239 6.5304 18.3891L7.15048 18.8864C7.44381 18.9088 7.85792 18.9057 8.1618 18.9144C8.50482 18.9242 8.96793 18.9462 9.29742 18.9269C9.45004 18.7628 9.5136 18.7328 9.73879 18.7518C10.0043 18.9594 10.0231 19.3722 9.60723 19.3773C9.47509 19.3789 9.43304 19.2896 9.35233 19.1989C9.2589 19.0939 9.04224 19.1326 8.9122 19.1154C8.30278 19.0943 7.68886 19.1048 7.07976 19.0681C6.88418 18.9434 6.60992 18.7028 6.42843 18.547C6.22022 18.5908 6.15109 18.6154 5.96093 18.5306ZM6.28324 18.1444C6.23698 18.1096 6.17552 18.1026 6.12264 18.1262C6.0698 18.1497 6.03387 18.2001 6.02876 18.2577C6.02368 18.3154 6.05022 18.3712 6.09813 18.4037C6.16974 18.4522 6.26696 18.4347 6.31721 18.3643C6.36748 18.2939 6.35237 18.1963 6.28324 18.1444ZM9.69363 18.9313C9.64796 18.901 9.5895 18.8976 9.54067 18.9226C9.49186 18.9475 9.46029 18.9969 9.45808 19.0516C9.45586 19.1064 9.48337 19.1581 9.53002 19.1869C9.60052 19.2304 9.69286 19.2093 9.7375 19.1396C9.78216 19.0698 9.76265 18.9771 9.69363 18.9313Z" fill="#6B727F"/>
<path d="M7.39773 18.3758C7.35621 18.1327 7.36494 17.9555 7.64906 17.9149C7.83513 17.8883 7.87933 18.0896 7.9631 18.0955C8.5477 18.1371 9.47725 18.1345 10.0315 18.153C10.0515 18.1562 10.1119 18.178 10.1347 18.1855L10.1553 18.2341L10.115 18.2838C9.96362 18.3722 8.28058 18.309 7.99989 18.3036C7.77087 18.5191 7.65888 18.5895 7.39773 18.3758ZM7.72256 18.0891C7.66075 18.0604 7.58725 18.0817 7.55036 18.139C7.51347 18.1962 7.5245 18.272 7.5762 18.3164C7.61661 18.351 7.6735 18.3591 7.7219 18.3369C7.77032 18.3147 7.80142 18.2664 7.80157 18.2132C7.8017 18.16 7.77087 18.1115 7.72256 18.0891Z" fill="#6B727F"/>
<path d="M10.7682 17.4664C10.7646 17.4646 10.7609 17.4629 10.7573 17.4611C10.525 17.3427 7.59613 17.416 7.06722 17.4142C7.12218 17.2027 7.19892 17.2873 7.23671 17.1848C7.68188 17.1726 10.5724 17.1518 10.7728 17.2347C10.7219 17.3371 10.7431 17.3727 10.7682 17.4664Z" fill="#6B727F"/>
<path d="M10.9295 20.9685C10.8444 21.0187 10.7345 21.0881 10.635 21.0957C9.74102 21.1644 8.83227 21.1065 7.93486 21.1389C7.71026 21.147 7.45775 21.1503 7.23654 21.1393C7.23573 21.0883 7.2326 21.0701 7.20947 21.0245C7.22852 20.9934 7.25384 20.9545 7.27067 20.9232C8.36617 20.854 9.53581 20.9632 10.633 20.8758C10.7072 20.8698 10.786 20.799 10.8396 20.7495C10.8546 20.864 10.8564 20.8802 10.9295 20.9685Z" fill="#6B727F"/>
<path d="M10.9296 20.9687C10.8565 20.8805 10.8548 20.8643 10.8398 20.7498C10.8 20.5434 10.8323 20.254 10.8195 20.0575C10.7831 19.4971 10.8825 17.9334 10.7683 17.4666C10.7433 17.3728 10.722 17.3372 10.7729 17.2349L10.7947 17.2488C10.9928 17.378 11.0204 17.537 11.0211 17.7624C11.0241 18.7547 11.0711 19.7555 11.0236 20.746C11.0198 20.827 10.9736 20.903 10.9296 20.9687Z" fill="#6B727F"/>
<path d="M20.9148 13.1058C21.123 13.402 21.3275 13.7008 21.5283 14.002C21.7353 14.3093 21.9223 14.5786 22.0742 14.9147C22.6146 16.1112 22.0923 17.2237 21.5065 18.2794C21.2237 18.789 21.0001 19.3441 20.6432 19.8227C20.4713 20.0528 20.2638 20.254 20.0285 20.4186C19.7693 20.6013 19.5009 20.7231 19.1921 20.7934C18.602 20.9278 14.7883 20.9697 14.7216 21.0232C14.6758 21.0599 14.6654 21.081 14.6548 21.1395C14.6008 21.4366 14.8802 22.3007 14.626 22.4844C14.5687 22.5258 14.485 22.5403 14.4168 22.5204C14.2663 22.4765 11.5448 19.6598 11.4232 19.3831C11.3931 19.3146 11.4157 19.2679 11.4436 19.2031C11.4957 19.0819 11.5801 18.9639 11.6633 18.862C11.858 18.6233 14.0547 16.1594 14.1821 16.1192C14.2514 16.0974 14.3104 16.1107 14.3766 16.1347C14.6067 16.3176 14.5916 17.1912 14.5792 17.4984L17.435 17.3853C17.8796 17.3683 18.4315 17.3326 18.8702 17.3361C18.4942 16.5975 17.9905 15.9293 17.5764 15.2258C17.6833 15.2027 17.653 15.3129 17.861 15.2459C18.1846 15.8014 18.9276 16.7208 19.0111 17.3237C20.0863 17.3882 21.8148 17.2845 22.0124 15.919C22.114 15.2172 21.6587 14.6126 21.2933 14.0689C21.0986 13.7779 20.9056 13.4859 20.7142 13.1928C20.7495 13.1903 20.796 13.1908 20.8324 13.1902C20.8586 13.1462 20.8722 13.1338 20.9148 13.1058ZM14.3144 16.261C13.8921 16.7259 13.4724 17.1932 13.0551 17.6627C12.8815 17.857 12.5292 18.2297 12.3819 18.4246C12.3015 18.5093 11.5894 19.2157 11.6565 19.3195C11.9943 19.8423 12.5501 20.2798 12.9645 20.7571C13.3726 21.2072 13.825 21.6381 14.2381 22.0853C14.3289 22.1836 14.4361 22.298 14.535 22.3869C14.5065 22.0994 14.3867 21.1112 14.4342 20.8861C14.4788 20.8375 14.5441 20.8024 14.6113 20.7998C15.5377 20.7642 16.5061 20.7151 17.4314 20.6998C19.2273 20.6701 20.0529 20.6285 20.9332 18.8839C21.0876 18.5845 21.9768 16.9518 21.9357 16.698C21.8586 16.7343 21.7872 16.8498 21.721 16.9154C21.1732 17.4589 20.4537 17.5041 19.7282 17.5252C18.0902 17.573 16.4526 17.6482 14.815 17.7031C14.4824 17.7142 14.3839 17.6761 14.3595 17.3387C14.3336 16.9796 14.3366 16.6186 14.3144 16.261Z" fill="#6B727F"/>
<path d="M14.3144 16.261C13.8921 16.7259 13.4724 17.1932 13.0551 17.6627C12.8815 17.857 12.5292 18.2297 12.3819 18.4246C12.3015 18.5093 11.5894 19.2157 11.6565 19.3195C11.9943 19.8423 12.5501 20.2798 12.9645 20.7571C13.3726 21.2072 13.825 21.6381 14.2381 22.0853C14.3289 22.1836 14.4361 22.298 14.535 22.3869C14.5065 22.0994 14.3867 21.1112 14.4342 20.8861C14.4788 20.8375 14.5441 20.8024 14.6113 20.7998C15.5377 20.7642 16.5061 20.7151 17.4314 20.6998C19.2273 20.6701 20.0529 20.6285 20.9332 18.8839C21.0876 18.5845 21.9768 16.9518 21.9357 16.698C21.8586 16.7343 21.7872 16.8498 21.721 16.9154C21.1732 17.4589 20.4537 17.5041 19.7282 17.5252C18.0902 17.573 16.4526 17.6482 14.815 17.7031C14.4824 17.7142 14.3839 17.6761 14.3595 17.3387C14.3336 16.9796 14.3366 16.6186 14.3144 16.261Z" fill="#6B727F"/>
<path d="M17.8537 18.6225C18.4146 18.5938 18.9778 18.6076 19.5355 18.5591C19.7258 18.5425 20.1315 18.1134 20.3042 18.3003C20.2718 18.3727 19.7294 18.6966 19.6506 18.7059C19.1303 18.7672 18.282 18.8295 17.7725 18.7808L17.5221 18.5699C17.0119 18.5526 16.4036 18.626 15.8673 18.6171C15.64 18.9951 15.5272 19.0343 15.2017 18.773C15.1341 18.7187 13.9526 18.7837 13.789 18.7661C13.5857 19.0254 13.5219 19.0868 13.214 18.9231C13.0793 19.0483 12.8394 19.2009 12.7261 19.345C12.7056 19.3711 12.7254 19.399 12.7389 19.4359C12.6566 19.4019 12.5773 19.3551 12.4958 19.3726L12.4859 19.3575C12.5189 19.2097 12.9525 18.923 13.1001 18.818C13.1809 18.2831 13.449 18.2773 13.7931 18.6254C14.2026 18.5907 14.7043 18.5822 15.1163 18.5784C15.1494 18.5264 15.1834 18.4748 15.2182 18.4238C15.4238 18.1247 15.619 18.2883 15.8399 18.4536C16.2918 18.444 17.1768 18.364 17.5661 18.4011C17.6517 18.4742 17.7625 18.5535 17.8537 18.6225ZM15.3201 18.5916C15.3199 18.679 15.3876 18.7515 15.4748 18.7572C15.562 18.7629 15.6386 18.6999 15.6499 18.6133C15.6579 18.5521 15.6312 18.4916 15.5806 18.4562C15.5301 18.4208 15.464 18.4165 15.4093 18.445C15.3546 18.4734 15.3202 18.5299 15.3201 18.5916ZM13.3017 18.7177C13.3125 18.7955 13.3832 18.8506 13.4613 18.8421C13.5393 18.8336 13.5965 18.7647 13.5904 18.6864C13.5863 18.6336 13.5538 18.5872 13.5056 18.5653C13.4573 18.5435 13.401 18.5496 13.3586 18.5813C13.3162 18.613 13.2944 18.6653 13.3017 18.7177Z" fill="#6B727F"/>
<path d="M17.0817 19.5405C17.3448 19.5548 19.1699 19.4564 19.2336 19.4877C19.2343 19.5627 19.2372 19.5363 19.1828 19.6089C19.0046 19.6922 17.3642 19.7122 17.0749 19.7183C16.7785 20.0827 16.5988 20.0713 16.3136 19.6991C16.3082 19.634 16.3585 19.5533 16.3849 19.4848C16.634 19.0899 16.8517 19.281 17.0817 19.5405ZM16.5227 19.5856C16.5103 19.6496 16.5334 19.7154 16.5832 19.7576C16.6329 19.7999 16.7015 19.812 16.7627 19.7895C16.8239 19.7669 16.8682 19.7131 16.8786 19.6486C16.8943 19.5512 16.8289 19.4592 16.7317 19.4419C16.6345 19.4247 16.5415 19.4887 16.5227 19.5856Z" fill="#6B727F"/>
<path d="M16.385 19.4848C16.3586 19.5533 16.3082 19.634 16.3137 19.6991C15.937 19.6867 15.4433 19.7119 15.0573 19.7217L12.9071 19.7692C12.7796 19.6449 12.6269 19.4881 12.4959 19.3726C12.5773 19.3551 12.6566 19.4019 12.7389 19.4359C12.8334 19.5012 12.9607 19.6004 13.0717 19.5849C13.6362 19.5062 16.0164 19.6329 16.385 19.4848Z" fill="#6B727F"/>
<path d="M20.4246 16.7414C20.3935 16.8087 20.3927 16.825 20.3317 16.859C20.0995 16.7662 20.3841 15.994 20.2271 15.754C20.1144 15.5849 20.0052 15.4135 19.8995 15.2399C19.9044 15.0486 19.9972 14.6209 20.0338 14.4043C19.6718 13.823 19.2478 13.0887 18.8643 12.5375C18.5971 12.4859 18.3582 12.3044 18.5254 12.0126C18.6292 11.9076 18.7235 11.7948 18.9106 11.8538C19.3416 11.9895 19.0647 12.436 19.0816 12.466C19.3588 12.9593 20.0142 13.9252 20.2476 14.3807C20.2308 14.6169 20.1573 14.9524 20.1105 15.1916C20.5755 15.9353 20.5164 15.8719 20.4246 16.7414ZM18.6471 12.1681C18.642 12.2314 18.6733 12.2921 18.7279 12.3246C18.7825 12.3571 18.8508 12.3557 18.904 12.3211C18.9573 12.2865 18.9862 12.2246 18.9787 12.1616C18.9685 12.0765 18.8956 12.013 18.81 12.0147C18.7243 12.0164 18.6539 12.0827 18.6471 12.1681Z" fill="#6B727F"/>
<path d="M19.3963 15.5814C19.2822 15.8327 19.0234 15.9823 18.8148 15.7465C18.7556 15.6795 18.7268 15.591 18.7353 15.5021C18.7489 15.3455 18.8567 15.2756 18.9716 15.1766L19.0589 14.3865C18.9206 14.1269 18.696 13.779 18.5404 13.5178C18.3648 13.223 18.1351 12.8202 17.9421 12.5525C17.7218 12.5116 17.6624 12.474 17.5577 12.2738C17.5906 11.9383 17.929 11.7011 18.1563 12.0495C18.2284 12.1602 18.1756 12.2435 18.1423 12.3603C18.1038 12.4955 18.2526 12.6576 18.3078 12.7766C18.6167 13.3023 18.9546 13.815 19.2503 14.3488C19.2498 14.5808 19.1937 14.9413 19.1595 15.178C19.3082 15.3303 19.366 15.3754 19.3963 15.5814ZM18.8975 15.5164C18.8929 15.5741 18.92 15.6297 18.9682 15.6617C19.0164 15.6937 19.0782 15.6971 19.1296 15.6705C19.181 15.6438 19.2139 15.5915 19.2156 15.5337C19.2182 15.4472 19.1513 15.3745 19.065 15.3698C18.9786 15.3651 18.9043 15.4302 18.8975 15.5164ZM17.7335 12.2156C17.7324 12.2704 17.7609 12.3216 17.8081 12.3494C17.8553 12.3773 17.9139 12.3775 17.9613 12.35C18.0087 12.3225 18.0376 12.2715 18.0369 12.2167C18.0358 12.1339 17.9686 12.0673 17.8857 12.067C17.8029 12.0667 17.7352 12.1328 17.7335 12.2156Z" fill="#6B727F"/>
<path d="M18.4954 14.4516C18.3124 14.617 18.1582 14.7046 17.9716 14.4865C17.8494 14.3437 17.9956 14.1985 17.9557 14.1246C17.6774 13.6088 17.1769 12.8255 16.8953 12.3477C16.8873 12.329 16.8733 12.2664 16.8675 12.2431L16.8975 12.1997L16.961 12.2071C17.1168 12.2875 17.9657 13.7421 18.1117 13.9819C18.4163 14.0598 18.5358 14.1166 18.4954 14.4516ZM18.0792 14.3311C18.0881 14.3986 18.1455 14.4493 18.2136 14.4497C18.2818 14.4501 18.3398 14.4002 18.3495 14.3328C18.3571 14.2801 18.3334 14.2277 18.2888 14.1988C18.2441 14.1698 18.1866 14.1694 18.1416 14.1978C18.0966 14.2263 18.0722 14.2783 18.0792 14.3311Z" fill="#6B727F"/>
<path d="M15.9208 12.0939C15.9212 12.0979 15.9218 12.1019 15.9221 12.1059C15.9467 12.3655 17.5788 14.7986 17.8608 15.2461C17.6528 15.313 17.6831 15.2029 17.5763 15.226C17.3274 14.8567 15.7602 12.4279 15.7227 12.2142C15.8364 12.2023 15.8551 12.1653 15.9208 12.0939Z" fill="#6B727F"/>
<path d="M18.7906 10.0803C18.8787 10.1251 18.9961 10.1807 19.0559 10.2606C19.5931 10.9785 20.0314 11.7766 20.5399 12.5168C20.6671 12.7021 20.8053 12.9134 20.9146 13.1061C20.872 13.1341 20.8583 13.1465 20.8322 13.1905C20.7957 13.1911 20.7493 13.1906 20.7139 13.1931C20.0682 12.3054 19.5334 11.2595 18.8713 10.3802C18.8265 10.3208 18.7245 10.2922 18.6539 10.2735C18.7426 10.1995 18.7553 10.1893 18.7906 10.0803Z" fill="#6B727F"/>
<path d="M18.7907 10.08C18.7555 10.189 18.7427 10.1992 18.654 10.2732C18.5012 10.4175 18.2396 10.5454 18.0806 10.6615C17.627 10.9927 16.2537 11.747 15.9208 12.0937C15.8552 12.1651 15.8365 12.2022 15.7228 12.214L15.7229 12.1882C15.7258 11.9517 15.8451 11.8432 16.0351 11.7218C16.8711 11.1873 17.6908 10.6109 18.5523 10.1201C18.6227 10.0799 18.7117 10.0782 18.7907 10.08Z" fill="#6B727F"/>
</g>
<defs>
<clipPath id="clip0_217_1178">
<rect width="23.887" height="24" fill="white"/>
</clipPath>
</defs>
</svg>
